<svg width="24" height="24" viewBox="0 0 24 24" fill="none" xmlns="http://www.w3.org/2000/svg">
<g clip-path="url(#clip0)">
<path d="M17.9505 2.54163H9.67434L7.60532 0.103119H2.43269C1.29472 0.103119 0.363647 1.20045 0.363647 2.54163V17.1727C0.363647 18.5139 1.29472 19.6112 2.43269 19.6112H18.4677C19.3471 19.6112 20.0195 18.8187 20.0195 17.7824V4.98018C20.0195 3.639 19.0884 2.54163 17.9505 2.54163Z" fill="#E8E6E3"/>
<path d="M20.123 6.19937H6.2087C5.22589 6.19937 4.34654 7.05284 4.19136 8.21109L2.43268 19.6112H18.8298C19.8126 19.6112 20.692 18.7577 20.8472 17.5994L22.1403 9.06463C22.399 7.60149 21.4161 6.19937 20.123 6.19937Z" fill="#E8E7E3"/>
<path d="M18.1818 24C21.3951 24 24 20.9299 24 17.1428C24 13.3558 21.3951 10.2857 18.1818 10.2857C14.9685 10.2857 12.3636 13.3558 12.3636 17.1428C12.3636 20.9299 14.9685 24 18.1818 24Z" fill="#646464"/>
<path d="M18.3456 12V22.2857" stroke="white" stroke-width="2"/>
<path d="M14.0166 17.1021H22.7439" stroke="white" stroke-width="2"/>
</g>
<defs>
<clipPath id="clip0">
<rect width="24" height="24" fill="white"/>
</clipPath>
</defs>
</svg>
