<svg width="31" height="31" viewBox="0 0 31 31" fill="none" xmlns="http://www.w3.org/2000/svg">
<path d="M16.4035 1.18093C16.2861 1.83396 16.1804 2.40096 16.1647 2.44397C16.1412 2.50262 16.0551 2.53391 15.7107 2.60429C15.3897 2.67077 15.2723 2.67859 15.241 2.64731C15.2175 2.61993 14.9082 2.15069 14.5599 1.60325C14.2076 1.0558 13.9101 0.594381 13.8944 0.574831C13.8749 0.551369 11.7259 1.41164 11.675 1.46248C11.6672 1.4703 11.7807 2.03338 11.9294 2.71378L12.1995 3.95336L11.8277 4.20753C11.6241 4.34439 11.4519 4.45779 11.4441 4.45779C11.4362 4.45779 10.9587 4.13323 10.3833 3.73438L9.33816 3.01097L8.50441 3.83996C8.04644 4.29747 7.67066 4.6885 7.67066 4.70805C7.67066 4.72369 7.97989 5.18511 8.35567 5.72865C8.73144 6.2761 9.05241 6.74534 9.06416 6.77662C9.08764 6.84309 8.62575 7.54695 8.55921 7.54695C8.53181 7.54695 7.97206 7.42964 7.30663 7.28887C6.64511 7.14419 6.0971 7.0347 6.08928 7.04252C6.05796 7.07771 5.20464 9.16583 5.20464 9.20885C5.20464 9.23622 5.67436 9.56078 6.25368 9.93226C6.82908 10.3037 7.30271 10.6087 7.31054 10.6166C7.31837 10.6205 7.28314 10.8277 7.23617 11.0741L7.15397 11.5199L5.88573 11.7506L4.61749 11.9774V13.1622C4.61749 13.8152 4.62924 14.3548 4.64881 14.3666C4.66446 14.3744 5.23595 14.4839 5.91313 14.609L7.15006 14.8319L7.24009 15.2777C7.28706 15.524 7.31837 15.7313 7.31054 15.7352C7.30663 15.743 6.84083 16.0402 6.28108 16.3999C5.72133 16.7558 5.2477 17.0725 5.22813 17.1038C5.20464 17.139 5.3299 17.4909 5.63522 18.2261C5.8779 18.8165 6.08145 19.3053 6.08928 19.3092C6.09319 19.3171 6.6412 19.2076 7.30663 19.0668C7.96815 18.9221 8.53573 18.8087 8.55921 18.8087C8.62967 18.8087 9.09156 19.5087 9.06416 19.5751C9.05241 19.6064 8.73927 20.0678 8.37132 20.5996C7.99946 21.1315 7.69023 21.5929 7.6824 21.6242C7.67458 21.6593 7.99163 22.0074 8.5005 22.5157L9.33425 23.3447L10.352 22.6369C10.9117 22.2498 11.3893 21.9213 11.4127 21.9135C11.4362 21.9018 11.6202 22.0035 11.8238 22.1364C12.0273 22.2694 12.1956 22.3828 12.1995 22.3828C12.2034 22.3867 12.0821 22.9498 11.9334 23.6341C11.7846 24.3223 11.6672 24.8893 11.675 24.8932C11.7259 24.9401 13.8788 25.7965 13.8983 25.7769C13.9101 25.7613 14.2076 25.2999 14.5599 24.7524C14.9082 24.205 15.2175 23.7357 15.241 23.7084C15.2723 23.6732 15.3858 23.681 15.7224 23.7475L16.1608 23.8296L16.243 24.2832C16.2861 24.5295 16.3918 25.0926 16.47 25.5345L16.6149 26.3361L17.8205 26.3478C18.482 26.3517 19.0222 26.3439 19.0261 26.3283C19.0261 26.3087 19.1279 25.7417 19.2492 25.0652L19.4723 23.8374L19.9186 23.7475C20.1652 23.6966 20.3687 23.6614 20.3765 23.6693C20.3805 23.6732 20.6779 24.1346 21.0381 24.6938C21.3982 25.2529 21.7113 25.73 21.7348 25.7574C21.77 25.7926 22.0362 25.6948 22.8504 25.3585C23.4414 25.1161 23.9307 24.9049 23.9464 24.8932C23.9581 24.8775 23.8485 24.3145 23.7037 23.6341C23.555 22.9537 23.4532 22.3867 23.4688 22.371C23.6489 22.2185 24.193 21.8979 24.2361 21.9213C24.3065 21.9604 25.884 23.0514 26.111 23.2117L26.2872 23.3408L27.1366 22.4922L27.9899 21.6398L27.2618 20.5918L26.5377 19.5439L26.7843 19.1763C26.9291 18.9573 27.0544 18.8087 27.0935 18.8087C27.1287 18.8087 27.6885 18.9221 28.3422 19.0629C28.992 19.2037 29.536 19.3053 29.5517 19.2897C29.6261 19.2037 30.4559 17.1155 30.4285 17.0921C30.4089 17.0725 29.9431 16.7753 29.3951 16.4234C28.8471 16.0715 28.3774 15.7665 28.35 15.743C28.3187 15.7117 28.3265 15.5944 28.3931 15.2738C28.4713 14.8749 28.487 14.8436 28.5809 14.8163C28.6357 14.8006 29.2033 14.695 29.8414 14.5816L31 14.3744V13.1739V11.9735L30.542 11.8913C30.2876 11.8444 29.72 11.7388 29.2816 11.6606L28.4792 11.5159L28.3891 11.0702C28.3422 10.8238 28.303 10.6205 28.3109 10.6166C28.3148 10.6127 28.7962 10.3037 29.3756 9.93226C29.9588 9.56078 30.4363 9.25186 30.4442 9.24795C30.4598 9.23622 29.6065 7.16765 29.5556 7.08162C29.5282 7.03861 29.2934 7.07771 28.3109 7.28887C27.6454 7.42964 27.0818 7.54695 27.0622 7.54695C27.0387 7.54695 26.9134 7.37881 26.7764 7.17547L26.5298 6.80008L26.7373 6.49899C26.8547 6.33475 27.1796 5.8616 27.4654 5.45493L27.9821 4.71196L27.1327 3.86342C26.6199 3.34726 26.2715 3.02661 26.248 3.04616C26.2245 3.0618 25.7509 3.39027 25.1951 3.76957L24.1891 4.46561L23.8172 4.21926C23.6137 4.0824 23.4454 3.94945 23.4454 3.92208C23.4454 3.8947 23.5628 3.33162 23.7037 2.67468C23.9151 1.70883 23.9542 1.4703 23.9112 1.44292C23.8251 1.39209 21.7544 0.543547 21.7426 0.555279C21.7348 0.567009 20.3805 2.67077 20.3726 2.68641C20.3726 2.69032 20.1691 2.65513 19.9225 2.60429L19.4723 2.51826L19.3118 1.63844C19.2218 1.15747 19.12 0.590471 19.0809 0.379314L19.0144 1.14441e-05H17.8127H16.611L16.4035 1.18093ZM18.6738 8.03966C19.7463 8.21953 20.7093 8.71614 21.4882 9.50212C22.2867 10.3037 22.776 11.25 22.96 12.3528C23.0618 12.9706 23.0226 13.8269 22.866 14.437C22.4198 16.1614 21.1672 17.5261 19.4919 18.1009C18.8186 18.3356 17.8988 18.4333 17.202 18.3434C15.1627 18.0892 13.4717 16.701 12.861 14.7811C12.6614 14.1515 12.6223 13.8973 12.6223 13.1583C12.6223 12.4505 12.6732 12.126 12.861 11.5433C13.2838 10.2568 14.2663 9.12673 15.4993 8.50499C15.8438 8.32902 16.5053 8.11395 16.8693 8.0553C17.0298 8.03184 17.1903 8.00446 17.2216 7.99664C17.4212 7.95754 18.3528 7.98491 18.6738 8.03966Z" fill="#ddd"/>
<g filter="url(#filter0_d)">
<path d="M7.19844 14.2811C7.19453 14.2889 7.09275 14.8794 6.97141 15.5989L6.75221 16.901L6.38817 17.0301C6.18854 17.1044 5.89888 17.2256 5.74623 17.2999L5.47222 17.4406L4.3997 16.6781C3.81255 16.2597 3.31543 15.9156 3.29977 15.9156C3.2802 15.9156 2.89268 16.291 2.43471 16.7485L1.60096 17.5814L2.36817 18.645C2.787 19.2316 3.13146 19.7243 3.13146 19.7438C3.13146 19.7595 3.061 19.9315 2.97489 20.1192C2.88486 20.3069 2.77525 20.5806 2.72437 20.7292C2.67348 20.8817 2.62651 21.0108 2.61477 21.0186C2.60694 21.0264 2.06285 21.1242 1.40916 21.2337C0.75155 21.3432 0.168316 21.4409 0.105687 21.4526L0 21.4761L0.00782865 22.6727L0.0195716 23.8692L1.31913 24.0843L2.61868 24.2994L2.74003 24.6513C2.81048 24.8429 2.93183 25.1362 3.01011 25.2965L3.15886 25.5898L2.41514 26.626C2.00805 27.1969 1.65967 27.6857 1.6401 27.7092C1.62053 27.7326 1.92976 28.0689 2.45819 28.5968L3.3076 29.4453L4.37621 28.6828C4.95945 28.2644 5.46048 27.9203 5.48005 27.9203C5.50354 27.9203 5.64054 27.979 5.78537 28.0533C5.93411 28.1276 6.21203 28.2449 6.40775 28.3114L6.76004 28.4326L6.96358 29.6721C7.0771 30.3525 7.17887 30.943 7.1867 30.9782C7.20627 31.0447 7.2963 31.0486 8.39622 31.0486H9.58226L9.60575 30.943C9.61749 30.8804 9.71535 30.2978 9.82495 29.6409C9.93455 28.9878 10.0285 28.4482 10.0324 28.4404C10.0402 28.4365 10.2007 28.3778 10.3925 28.3074C10.5882 28.241 10.8622 28.1237 11.0071 28.0533C11.1519 27.979 11.2889 27.9203 11.3085 27.9203C11.332 27.9203 11.8291 28.2644 12.4162 28.6828L13.4848 29.4453L14.3147 28.6164C14.7727 28.1589 15.1484 27.7678 15.1484 27.7444C15.1484 27.7248 14.8079 27.2321 14.3891 26.6495L13.6336 25.5976L13.7902 25.2613C13.8763 25.0775 13.9937 24.7881 14.0524 24.6161L14.1581 24.3033L15.4655 24.0882L16.7729 23.8692L16.7846 22.6727L16.7924 21.4761L16.6868 21.4526C16.6241 21.4409 16.0409 21.3392 15.3833 21.2337C14.7257 21.1242 14.1777 21.0225 14.1659 21.0069C14.1542 20.9912 14.0955 20.8387 14.0328 20.6667C13.9741 20.4946 13.8567 20.217 13.7745 20.0527L13.6218 19.7516L14.3577 18.7232C14.7609 18.1562 15.1093 17.6714 15.1249 17.6401C15.1484 17.6049 14.9253 17.3546 14.3225 16.7524C13.8606 16.291 13.4653 15.9234 13.4418 15.9313C13.4183 15.9391 12.929 16.2832 12.3575 16.6938L11.3124 17.4367L11.011 17.2881C10.8427 17.206 10.5648 17.0887 10.3925 17.0301C10.2203 16.9675 10.0676 16.9088 10.052 16.8971C10.0363 16.8854 9.93455 16.3379 9.82495 15.681C9.71926 15.0241 9.61749 14.4414 9.60575 14.3789L9.58226 14.2733H8.39231C7.73862 14.2733 7.20235 14.2772 7.19844 14.2811ZM9.05383 20.3617C9.67621 20.5415 10.2399 21.0147 10.5256 21.5895C10.8857 22.3168 10.8779 23.0676 10.4982 23.791C10.2203 24.3228 9.75841 24.7139 9.15952 24.925C8.86203 25.0306 8.77983 25.0423 8.37665 25.0423C8.01653 25.0384 7.87562 25.0228 7.67207 24.9524C7.27281 24.8155 7.01055 24.6474 6.69349 24.3267C5.46831 23.0911 5.91063 21.089 7.55464 20.4281C7.98522 20.2522 8.59194 20.2248 9.05383 20.3617Z" fill="#ddd"/>
</g>
<defs>
<filter id="filter0_d" x="0" y="14.2733" width="24.7924" height="28.7753" filterUnits="userSpaceOnUse" color-interpolation-filters="sRGB">
<feFlood flood-opacity="0" result="BackgroundImageFix"/>
<feColorMatrix in="SourceAlpha" type="matrix" values="0 0 0 0 0 0 0 0 0 0 0 0 0 0 0 0 0 0 127 0" result="hardAlpha"/>
<feOffset dx="4" dy="8"/>
<feGaussianBlur stdDeviation="2"/>
<feComposite in2="hardAlpha" operator="out"/>
<feColorMatrix type="matrix" values="0 0 0 0 0 0 0 0 0 0 0 0 0 0 0 0 0 0 0.25 0"/>
<feBlend mode="normal" in2="BackgroundImageFix" result="effect1_dropShadow"/>
<feBlend mode="normal" in="SourceGraphic" in2="effect1_dropShadow" result="shape"/>
</filter>
</defs>
</svg>
