<svg width="37" height="37" viewBox="0 0 37 37" fill="none" xmlns="http://www.w3.org/2000/svg">
<rect width="37" height="37" rx="18.5" fill="#EEEEEE"/>
<path fill-rule="evenodd" clip-rule="evenodd" d="M18.4993 9C13.2539 9 9 13.2533 9 18.5004C9 22.6972 11.7218 26.2582 15.4969 27.515C15.9722 27.602 16.1454 27.3086 16.1454 27.0566C16.1454 26.8309 16.1372 26.2337 16.1322 25.4411C13.4897 26.015 12.9322 24.1675 12.9322 24.1675C12.5 23.0699 11.8771 22.7777 11.8771 22.7777C11.0146 22.1886 11.9424 22.2003 11.9424 22.2003C12.896 22.2674 13.3975 23.1795 13.3975 23.1795C14.2449 24.6311 15.6213 24.2118 16.1625 23.9686C16.2488 23.355 16.4944 22.9363 16.7655 22.6989C14.6561 22.4586 12.4382 21.6439 12.4382 18.0035C12.4382 16.966 12.8085 16.1186 13.4162 15.4544C13.3182 15.2141 12.9922 14.2483 13.5096 12.9401C13.5096 12.9401 14.3068 12.6847 16.1218 13.9135C16.8794 13.703 17.6924 13.598 18.5001 13.5939C19.3072 13.5972 20.1197 13.703 20.8784 13.9135C22.6922 12.6847 23.4882 12.9401 23.4882 12.9401C24.0067 14.2483 23.6807 15.2141 23.5833 15.4544C24.1922 16.1186 24.5596 16.966 24.5596 18.0035C24.5596 21.6532 22.3382 22.4563 20.2223 22.6913C20.5629 22.9847 20.8667 23.5644 20.8667 24.4509C20.8667 25.7205 20.8552 26.7452 20.8552 27.0566C20.8552 27.3109 21.0266 27.6066 21.5083 27.5139C25.2805 26.2547 28 22.6966 28 18.5004C28 13.2533 23.7461 9 18.499 9" fill="#1B1817"/>
</svg>
