<svg width="37" height="37" viewBox="0 0 37 37" fill="none" xmlns="http://www.w3.org/2000/svg">
<rect width="37" height="37" rx="18.5" fill="#EEEEEE"/>
<path d="M28 18.9093C28 18.1123 27.9353 17.5306 27.7954 16.9275H18.6939V20.5249H24.0362C23.9286 21.4189 23.3469 22.7653 22.0544 23.67L22.0363 23.7905L24.914 26.0198L25.1134 26.0397C26.9444 24.3486 28 21.8605 28 18.9093Z" fill="#4285F4"/>
<path d="M18.6938 28.3878C21.3112 28.3878 23.5084 27.526 25.1133 26.0397L22.0544 23.67C21.2358 24.2409 20.1371 24.6394 18.6938 24.6394C16.1304 24.6394 13.9546 22.9484 13.1791 20.6111L13.0654 20.6208L10.0731 22.9365L10.034 23.0453C11.628 26.212 14.9024 28.3878 18.6938 28.3878Z" fill="#34A853"/>
<path d="M13.1791 20.6111C12.9745 20.008 12.856 19.3617 12.856 18.6939C12.856 18.026 12.9745 17.3798 13.1683 16.7766L13.1629 16.6482L10.1331 14.2952L10.034 14.3424C9.37699 15.6564 9 17.1321 9 18.6939C9 20.2557 9.37699 21.7313 10.034 23.0453L13.1791 20.6111Z" fill="#FBBC05"/>
<path d="M18.6938 12.7483C20.5141 12.7483 21.742 13.5346 22.4421 14.1916L25.1779 11.5204C23.4977 9.95862 21.3112 9 18.6938 9C14.9024 9 11.628 11.1757 10.034 14.3424L13.1683 16.7766C13.9546 14.4393 16.1304 12.7483 18.6938 12.7483Z" fill="#EB4335"/>
</svg>
