<svg width="37" height="37" viewBox="0 0 37 37" fill="none" xmlns="http://www.w3.org/2000/svg">
<rect width="37" height="37" rx="18.5" fill="#EEEEEE"/>
<path d="M26.5984 9.00007H10.4016C10.0341 8.99633 9.68018 9.13853 9.41741 9.39546C9.15463 9.6524 9.00452 10.0031 9 10.3706V26.6327C9.00534 26.9996 9.15581 27.3495 9.41849 27.6058C9.68118 27.862 10.0347 28.0038 10.4016 28.0001H26.5984C26.9659 28.003 27.3196 27.8603 27.5822 27.6032C27.8449 27.3461 27.9951 26.9955 28 26.628V10.3659C27.9934 9.99949 27.8425 9.65047 27.5801 9.39472C27.3176 9.13897 26.9648 8.99714 26.5984 9.00007Z" fill="#0076B2"/>
<path d="M11.8126 16.122H14.633V25.1968H11.8126V16.122ZM13.2235 11.6056C13.547 11.6056 13.8632 11.7015 14.1322 11.8813C14.4011 12.061 14.6107 12.3165 14.7345 12.6154C14.8582 12.9143 14.8905 13.2432 14.8272 13.5604C14.764 13.8777 14.6081 14.169 14.3793 14.3977C14.1504 14.6263 13.8589 14.7819 13.5416 14.8448C13.2243 14.9078 12.8954 14.8751 12.5967 14.7511C12.2979 14.6271 12.0426 14.4173 11.8631 14.1482C11.6836 13.8791 11.588 13.5627 11.5883 13.2393C11.5887 12.8058 11.7612 12.3903 12.0678 12.084C12.3744 11.7776 12.7901 11.6056 13.2235 11.6056ZM16.4021 16.122H19.1057V17.3679H19.1431C19.52 16.6546 20.4389 15.9024 21.8109 15.9024C24.6671 15.8961 25.1966 17.7759 25.1966 20.2132V25.1968H22.3762V20.7816C22.3762 19.7304 22.3575 18.377 20.9107 18.377C19.4639 18.377 19.2179 19.5233 19.2179 20.7131V25.1968H16.4021V16.122Z" fill="white"/>
</svg>
